# xmcd
#
# Track frame offsets:
#	183
#	11920
#	25350
#	37533
#	49100
#	62058
#	72988
#	85175
#	96758
#	110508
#	121308
#	134313
#	146658
#	159125
#	169925
#	182270
#
# Disc length: 2608
#
# Revision: 3
# Processed by: cddbd v1.5.1PL0 Copyright (c) Steve Scherf et al.
# Submitted via: ExactAudioCopy v0.90b3
# Normalized: r2:DSETVAR1,TDELIM( - )
#
DISCID=cd0a2e10
DTITLE=Various Artist - Top 10
DYEAR=1900
DGENRE=Blues
TTITLE0=2 Unlimited - Tribal Dance
TTITLE1=Off - Electrica Salsa (Remix)
TTITLE2=Virtuality - All Right
TTITLE3=Alter Ego - America
TTITLE4=Tambourines - Hello Daddy
TTITLE5=DJ H' - You
TTITLE6=Mortix Mix - M.O.R.T.I.S.
TTITLE7=Datura - Devotion
TTITLE8=Dance 2 trance - Power of an A.merican N.atives
TTITLE9=Bass Bumper's - Runnin'
TTITLE10=Pin-Occhio - Tu Ta Tu Ta Tu Ta Ta
TTITLE11=Max Kelly Deejay - Everybody Up
TTITLE12=Ramirez - Terapia
TTITLE13=Dr D.J. Cerla - Rotterdam '93 Remix
TTITLE14=Indo - Xzena Remix
TTITLE15=Rexanthony - Gener Action
EXTD=ID3G: 0
EXTT0=
EXTT1=
EXTT2=
EXTT3=
EXTT4=
EXTT5=
EXTT6=
EXTT7=
EXTT8=
EXTT9=
EXTT10=
EXTT11=
EXTT12=
EXTT13=
EXTT14=
EXTT15=
PLAYORDER=
